<svg width="1190" height="310" xmlns="http://www.w3.org/2000/svg" xmlns:xlink="http://www.w3.org/1999/xlink" overflow="hidden"><defs><clipPath id="clip0"><rect x="17" y="190" width="1190" height="310"/></clipPath><clipPath id="clip1"><rect x="18" y="191" width="1188" height="308"/></clipPath><clipPath id="clip2"><rect x="18" y="191" width="1188" height="308"/></clipPath><clipPath id="clip3"><rect x="18" y="191" width="1188" height="308"/></clipPath></defs><g clip-path="url(#clip0)" transform="translate(-17 -190)"><g clip-path="url(#clip1)"><g clip-path="url(#clip2)"><g clip-path="url(#clip3)"><path d="M444.786 258.07 34.2222 258.07C11.4074 258.07 8.56696 250.529 25.7009 235.449L268.816 21.4916C285.949 6.41096 305.924-1.12933 328.739-1.12933L1149.87-1.12933C1172.68-1.12933 1175.52 6.41096 1158.39 21.4916L915.273 235.449C898.139 250.529 878.165 258.07 855.35 258.07Z" stroke="#36393D" stroke-width="3.42222" stroke-miterlimit="10" fill="#CDEB8B" transform="matrix(1.00041 0 0 1 19.7118 192.711)"/><path d="M82.2018 188.496 281.649 11.1907 1165.99 11.1907 966.538 188.496Z" fill="#808080" transform="matrix(1.00041 0 0 1 19.7118 192.711)"/><path d="M284.044 13.552 1162.56 13.9627" stroke="#FF9933" stroke-width="10.2667" stroke-miterlimit="10" fill="none" transform="matrix(1.00041 0 0 1 19.7118 192.711)"/><path d="M193.116 65.0907 817.124 65.5013" stroke="#FFFFFF" stroke-width="10.2667" stroke-miterlimit="10" stroke-dasharray="30.8 30.8" fill="none" transform="matrix(1.00041 0 0 1 19.7118 192.711)"/><path d="M147.121 116.629 459.365 116.629" stroke="#FFFFFF" stroke-width="10.2667" stroke-miterlimit="10" fill="none" transform="matrix(1.00041 0 0 1 19.7118 192.711)"/><path d="M491.02 118.956 730.679 119.778" stroke="#FFFFFF" stroke-width="10.2667" stroke-miterlimit="10" stroke-dasharray="30.8 30.8" fill="none" transform="matrix(1.00041 0 0 1 19.7118 192.711)"/><path d="M723.834 119.778 1069.48 118.956" stroke="#FFFFFF" stroke-width="10.2667" stroke-miterlimit="10" fill="none" transform="matrix(1.00041 0 0 1 19.7118 192.711)"/><path d="M703.404 89.2516 722.602 89.2516" stroke="#FFFFFF" stroke-width="3.42222" stroke-miterlimit="10" fill="none" transform="matrix(1.00041 0 0 1 19.7118 192.711)"/><path d="M732.869 89.2516 722.602 92.6738 722.602 85.8293Z" stroke="#FFFFFF" stroke-width="3.42222" stroke-miterlimit="10" fill="#FFFFFF" transform="matrix(1.00041 0 0 1 19.7118 192.711)"/><path d="M758.536 37.4733 777.7 37.4733" stroke="#FFFFFF" stroke-width="3.42222" stroke-miterlimit="10" fill="none" transform="matrix(1.00041 0 0 1 19.7118 192.711)"/><path d="M787.967 37.4733 777.7 40.8956 777.7 34.0511Z" stroke="#FFFFFF" stroke-width="3.42222" stroke-miterlimit="10" fill="#FFFFFF" transform="matrix(1.00041 0 0 1 19.7118 192.711)"/><path d="M400.434 37.0627 419.599 37.0627" stroke="#FFFFFF" stroke-width="3.42222" stroke-miterlimit="10" fill="none" transform="matrix(1.00041 0 0 1 19.7118 192.711)"/><path d="M429.865 37.0627 419.599 40.4849 419.599 33.6404Z" stroke="#FFFFFF" stroke-width="3.42222" stroke-miterlimit="10" fill="#FFFFFF" transform="matrix(1.00041 0 0 1 19.7118 192.711)"/><path d="M830.984 65.0907 1116.64 65.0907" stroke="#FFFFFF" stroke-width="10.2667" stroke-miterlimit="10" fill="none" transform="matrix(1.00041 0 0 1 19.7118 192.711)"/><path d="M730.302 178.024 762.3 195.648C782.286 206.668 792.256 219.787 792.21 235.004L792.142 257.796" stroke="#808080" stroke-width="85.5556" stroke-miterlimit="10" fill="none" transform="matrix(1.00041 0 0 1 19.7118 192.711)"/><path d="M614.323 178.024 658.436 198.044C679.22 207.467 695.259 220.083 706.552 235.894L723.492 259.61" stroke="#808080" stroke-width="17.1111" stroke-miterlimit="10" fill="none" transform="matrix(1.00041 0 0 1 19.7118 192.711)"/><path d="M696.456 171.111 728.454 188.736C748.44 199.755 758.41 212.874 758.364 228.091L758.296 250.883" stroke="#808080" stroke-width="17.1111" stroke-miterlimit="10" fill="none" transform="matrix(1.00041 0 0 1 19.7118 192.711)"/><path d="M771.745 140.311 797.412 160.844C814.523 174.533 825.931 189.363 831.634 205.333L835.912 217.311C838.764 225.296 840.099 234.263 839.916 244.21L839.642 259.096" stroke="#808080" stroke-width="17.1111" stroke-miterlimit="10" fill="none" transform="matrix(1.00041 0 0 1 19.7118 192.711)"/><path d="M795.701 164.267 814.728 188.359C827.391 204.421 833.699 220.06 833.653 235.278L833.585 258.07" stroke="#FFFFFF" stroke-width="10.2667" stroke-miterlimit="10" fill="none" transform="matrix(1.00041 0 0 1 19.7118 192.711)"/><path d="M703.301 119.778 735.812 130.044C757.486 136.889 773.456 144.874 783.723 154L799.123 167.689" stroke="#FFFFFF" stroke-width="10.2667" stroke-miterlimit="10" fill="none" transform="matrix(1.00041 0 0 1 19.7118 192.711)"/><path d="M347.39 92.1262 387.806 92.3316" stroke="#FFFFFF" stroke-width="3.42222" stroke-miterlimit="10" fill="none" transform="matrix(1.00041 0 0 1 19.7118 192.711)"/><path d="M398.073 92.3658 387.806 95.7538 387.84 88.9093Z" stroke="#FFFFFF" stroke-width="3.42222" stroke-miterlimit="10" fill="#FFFFFF" transform="matrix(1.00041 0 0 1 19.7118 192.711)"/><path d="M664.869 178.298 696.559 195.888C716.499 206.976 726.515 220.117 726.606 235.312L726.709 258.07" stroke="#808080" stroke-width="17.1111" stroke-miterlimit="10" fill="none" transform="matrix(1.00041 0 0 1 19.7118 192.711)"/><path d="M431.987 116.629C452.315 116.629 482.659 123.428 523.018 137.026 563.355 150.623 605.197 165.978 648.545 183.089 691.893 200.2 718.45 224.418 728.215 255.743" stroke="#FFFFFF" stroke-width="10.2667" stroke-miterlimit="10" fill="none" transform="matrix(1.00041 0 0 1 19.7118 192.711)"/><path d="M364.501 92.4 380.175 102.153" stroke="#FFFFFF" stroke-width="3.42222" stroke-miterlimit="10" fill="none" transform="matrix(1.00041 0 0 1 19.7118 192.711)"/><path d="M388.901 107.56 378.395 105.062 381.988 99.2444Z" stroke="#FFFFFF" stroke-width="3.42222" stroke-miterlimit="10" fill="#FFFFFF" transform="matrix(1.00041 0 0 1 19.7118 192.711)"/><path d="M732.356 229.289 752.889 229.289 752.889 256.667 732.356 256.667Z" fill="#808080" transform="matrix(1.00041 0 0 1 19.7118 192.711)"/><path d="M690.912 176.895 722.91 194.519C742.896 205.539 752.866 218.657 752.82 233.875L752.752 256.667" stroke="#808080" stroke-width="17.1111" stroke-miterlimit="10" fill="none" transform="matrix(1.00041 0 0 1 19.7118 192.711)"/></g></g></g><path d="M483 379 674.24 213 1182 213 990.76 379Z" fill="#1BA1E2" fill-rule="evenodd" fill-opacity="0.701961"/><path d="M655.973 377.521 845.552 378.563 851.539 378.042 861.018 400.438 865.508 409.813 867.503 423.875 869 437.417 869 452 733.302 450.958 709.355 416.063 698.379 407.729 686.406 398.354 672.437 392.104 654.477 383.771 646.993 380.125 644 377 655.973 377.521Z" fill="#1BA1E2" fill-rule="evenodd" fill-opacity="0.698039"/></g></svg>